<?xml version="1.0" standalone="no"?><!DOCTYPE svg PUBLIC "-//W3C//DTD SVG 1.1//EN" "http://www.w3.org/Graphics/SVG/1.1/DTD/svg11.dtd"><svg t="1648450124544" class="icon" viewBox="0 0 1024 1024" version="1.1" xmlns="http://www.w3.org/2000/svg" p-id="5381" width="32" height="32" xmlns:xlink="http://www.w3.org/1999/xlink"><defs><style type="text/css">@font-face { font-family: rbicon; src: url("chrome-extension://dipiagiiohfljcicegpgffpbnjmgjcnf/fonts/rbicon.woff2") format("woff2"); font-weight: normal; font-style: normal; }
@font-face { font-family: feedback-iconfont; src: url("//at.alicdn.com/t/font_1031158_u69w8yhxdu.woff2?t=1630033759944") format("woff2"), url("//at.alicdn.com/t/font_1031158_u69w8yhxdu.woff?t=1630033759944") format("woff"), url("//at.alicdn.com/t/font_1031158_u69w8yhxdu.ttf?t=1630033759944") format("truetype"); }
</style></defs><path d="M454.435556 791.722667c-182.648889 0-331.242667-148.593778-331.242667-331.242667 0-182.656 148.593778-331.249778 331.242667-331.249778 182.656 0 331.249778 148.593778 331.249778 331.249778C785.685333 643.121778 637.091556 791.722667 454.435556 791.722667zM454.435556 193.230222c-147.363556 0-267.242667 119.886222-267.242667 267.249778s119.879111 267.242667 267.242667 267.242667 267.249778-119.879111 267.249778-267.242667S601.799111 193.230222 454.435556 193.230222z" fill="#8a8a8a" p-id="5382"></path><path d="M855.203556 890.951111c-8.184889 0-16.384-3.121778-22.627556-9.372444L657.948444 706.951111c-12.501333-12.494222-12.501333-32.753778 0-45.248 12.487111-12.501333 32.760889-12.501333 45.248 0l174.627556 174.627556c12.501333 12.494222 12.501333 32.753778 0 45.248C871.580444 887.829333 863.388444 890.951111 855.203556 890.951111z" fill="#8a8a8a" p-id="5383"></path></svg>